o GrassToGravelTransition_01
v 75 0 0
v -34 -39 0
v -23 -48 0
v 1 -45 0
v 22 -52 0
v 43 -47 0
v 65 -51 0
v 91 -45 0
v 112 -51 0
v 137 -43 0
v 157 -48 0
v 176 -37 0
v 184 -18 0
v 179 1 0
v 186 20 0
v 172 39 0
v 148 47 0
v 125 43 0
v 102 51 0
v 78 46 0
v 53 50 0
v 30 43 0
v 7 49 0
v -17 41 0
v -30 23 0
v -26 2 0
v -35 -18 0
vt .5 .5
vt 0.004524886877828055 0.125
vt 0.05429864253393665 0.038461538461538464
vt 0.16289592760180996 0.0673076923076923
vt 0.2579185520361991 0.0
vt 0.35294117647058826 0.04807692307692308
vt 0.45248868778280543 0.009615384615384616
vt 0.5701357466063348 0.0673076923076923
vt 0.665158371040724 0.009615384615384616
vt 0.7782805429864253 0.08653846153846154
vt 0.8687782805429864 0.038461538461538464
vt 0.9547511312217195 0.14423076923076922
vt 0.9909502262443439 0.3269230769230769
vt 0.9683257918552036 0.5096153846153846
vt 1.0 0.6923076923076923
vt 0.9366515837104072 0.875
vt 0.8280542986425339 0.9519230769230769
vt 0.7239819004524887 0.9134615384615384
vt 0.6199095022624435 0.9903846153846154
vt 0.5113122171945701 0.9423076923076923
vt 0.39819004524886875 0.9807692307692307
vt 0.29411764705882354 0.9134615384615384
vt 0.19004524886877827 0.9711538461538461
vt 0.08144796380090498 0.8942307692307693
vt 0.02262443438914027 0.7211538461538461
vt 0.04072398190045249 0.5192307692307693
vt 0.0 0.3269230769230769
vn 0 0 1
f 1/1/1 2/2/1 3/3/1
f 1/1/1 3/3/1 4/4/1
f 1/1/1 4/4/1 5/5/1
f 1/1/1 5/5/1 6/6/1
f 1/1/1 6/6/1 7/7/1
f 1/1/1 7/7/1 8/8/1
f 1/1/1 8/8/1 9/9/1
f 1/1/1 9/9/1 10/10/1
f 1/1/1 10/10/1 11/11/1
f 1/1/1 11/11/1 12/12/1
f 1/1/1 12/12/1 13/13/1
f 1/1/1 13/13/1 14/14/1
f 1/1/1 14/14/1 15/15/1
f 1/1/1 15/15/1 16/16/1
f 1/1/1 16/16/1 17/17/1
f 1/1/1 17/17/1 18/18/1
f 1/1/1 18/18/1 19/19/1
f 1/1/1 19/19/1 20/20/1
f 1/1/1 20/20/1 21/21/1
f 1/1/1 21/21/1 22/22/1
f 1/1/1 22/22/1 23/23/1
f 1/1/1 23/23/1 24/24/1
f 1/1/1 24/24/1 25/25/1
f 1/1/1 25/25/1 26/26/1
f 1/1/1 26/26/1 27/27/1
f 1/1/1 27/27/1 2/2/1