o WaterBase_01_JoinedSurface
v -9701.0810546875 75645.078125 530.0
v -8498.6982421875 73210.6796875 526.5104370117188
v -12684.03515625 74354.921875 530.0
v -11689.0244140625 71804.2421875 526.5104370117188
v -7892.73486328125 71965.2734375 524.761474609375
v -11208.9599609375 70551.140625 524.761474609375
v -7300.548828125 70690.6875 523.0
v -10759.490234375 69309.3125 523.0
v -6773.49462890625 69445.7578125 521.265380859375
v -10310.978515625 68076.171875 521.265380859375
v -6259.169921875 68185.953125 519.5223999023438
v -9881.787109375 66846.0703125 519.5223999023438
v -5763.32763671875 66907.8046875 517.767822265625
v -9477.673828125 65617.625 517.767822265625
v -5292.791015625 65608.9921875 516.0
v -9105.0869140625 64391.00390625 516.0
v -4900.29443359375 64332.79296875 514.26611328125
v -8732.1728515625 63190.23828125 514.26611328125
v -4533.01806640625 63044.5234375 512.52197265625
v -8385.4892578125 61986.84765625 512.52197265625
v -4194.25390625 61743.078125 510.766357421875
v -8067.83056640625 60780.30078125 510.766357421875
v -3887.84765625 60428.70703125 509.0
v -7782.40087890625 59571.29296875 509.0
v -3651.83251953125 59131.046875 507.2615051269531
v -7504.8359375 58385.390625 507.2615051269531
v -3449.310546875 57829.2109375 505.5147705078125
v -7257.20751953125 57191.890625 505.5147705078125
v -3279.96875 56523.76953125 503.7603759765625
v -7039.36669921875 55991.05078125 503.7603759765625
v -3143.4970703125 55216.08984375 502.0
v -6851.22216796875 54783.91015625 502.0
v -3052.144775390625 53915.38671875 500.25469970703125
v -6686.6181640625 53591.36328125 500.25469970703125
v -2995.18212890625 52617.89453125 498.50555419921875
v -6552.650390625 52390.0078125 498.50555419921875
v -2969.46923828125 51324.34375 496.7535095214844
v -6447.0 51180.6875 496.7535095214844
v -2971.79736328125 50035.53515625 495.0
v -6367.21435546875 49964.46484375 495.0
v -2991.883056640625 48743.3203125 493.2491149902344
v -6326.0498046875 48755.421875 493.2491149902344
v -3041.88818359375 47457.10546875 491.49835205078125
v -6313.04541015625 47540.55859375 491.49835205078125
v -3118.086669921875 46177.25390625 489.74853515625
v -6325.169921875 46320.6328125 489.74853515625
v -3216.79443359375 44903.8125 488.0
v -6359.31005859375 45096.1875 488.0
v -3317.9794921875 43619.890625 486.2456970214844
v -6437.26123046875 43873.96484375 486.2456970214844
v -3443.55615234375 42341.05859375 484.4940185546875
v -6538.9921875 42650.390625 484.4940185546875
v -3591.0576171875 41067.62890625 482.7454833984375
v -6662.3583984375 41425.91796875 482.7454833984375
v -3758.09716796875 39799.4375 481.0
v -6805.2451171875 40200.5625 481.0
v -3935.36767578125 38519.3984375 479.2434387207031
v -6979.43310546875 38971.19921875 479.2434387207031
v -4133.33740234375 37242.90234375 477.49090576171875
v -7173.67919921875 37744.09765625 477.49090576171875
v -4351.3515625 35970.4453125 475.7431335449219
v -7387.3935546875 36519.7265625 475.7431335449219
v -4588.8408203125 34701.96875 474.0
v -7620.0654296875 35298.03125 474.0
v -4889.47998046875 33431.1875 472.2409973144531
v -7833.04296875 34055.984375 472.2409973144531
v -5209.34130859375 32164.890625 470.48748779296875
v -8065.03515625 32817.23828125 470.48748779296875
v -5548.77294921875 30903.908203125 468.7404479980469
v -8316.4775390625 31582.4453125 468.7404479980469
v -5908.25244140625 29648.39453125 467.0
v -8587.8974609375 30351.60546875 467.0
v -6366.07763671875 28400.376953125 465.2381591796875
v -8811.390625 29082.712890625 465.2381591796875
v -6842.45166015625 27160.796875 463.4836730957031
v -9055.57421875 27815.89453125 463.4836730957031
v -7337.2294921875 25930.47265625 461.7376708984375
v -9320.6298828125 26551.90234375 461.7376708984375
v -7850.56201171875 24709.3671875 460.0
v -9606.8740234375 25290.6328125 460.0
v -8191.03564453125 23402.46484375 458.2358093261719
v -10123.615234375 24077.25 458.2358093261719
v -8552.939453125 22100.4921875 456.48095703125
v -10658.9140625 22872.30859375 456.48095703125
v -8934.759765625 20804.1015625 454.7359924316406
v -11211.34375 21675.900390625 454.7359924316406
v -9335.3271484375 19512.849609375 453.0
v -11779.978515625 20487.150390625 453.0
v -9821.5625 18218.365234375 451.2353515625
v -12321.9990234375 19260.720703125 451.2353515625
v -10326.1201171875 16933.0703125 449.4810485839844
v -12882.7373046875 18039.845703125 449.4810485839844
v -10845.9296875 15656.689453125 447.736572265625
v -13459.40625 16824.123046875 447.736572265625
v -11378.501953125 14387.8798828125 446.0
v -14049.8251953125 15612.1201171875 446.0
v -11967.0966796875 13108.35546875 444.2372131347656
v -14635.705078125 14373.3896484375 444.2372131347656
v -12569.423828125 11838.611328125 442.4838562011719
v -15237.666015625 13138.337890625 442.4838562011719
v -13182.279296875 10577.7744140625 440.7388916015625
v -15852.61328125 11906.3662109375 440.7388916015625
v -13803.06640625 9324.0712890625 439.0
v -16478.0390625 10675.9287109375 439.0
v -14451.4755859375 8054.70458984375 437.23980712890625
v -17114.884765625 9430.7421875 437.23980712890625
v -15109.6982421875 6792.1904296875 435.48687744140625
v -17763.025390625 8189.07958984375 435.48687744140625
v -16449.060546875 4285.4072265625 432.0
v -19086.72265625 5714.5927734375 432.0
v -17818.8671875 1749.939208984375 428.4871826171875
v -20475.134765625 3231.73095703125 428.4871826171875
v -19223.3515625 -769.6680908203125 425.0
v -21894.51953125 769.6680908203125 425.0
v -20597.646484375 -3359.139892578125 421.4849548339844
v -23455.74609375 -1662.3746337890625 421.4849548339844
v -21299.890625 -4648.45654296875 419.7384338378906
v -24247.404296875 -2868.080322265625 419.7384338378906
v -22013.669921875 -5933.6650390625 418.0
v -25047.673828125 -4066.3349609375 418.0
v -22762.076171875 -7232.6767578125 416.2386474609375
v -25864.55078125 -5283.5361328125 416.2386474609375
v -23519.763671875 -8522.873046875 414.48602294921875
v -26693.07421875 -6497.0966796875 414.48602294921875
v -25051.857421875 -11081.5009765625 411.0
v -28375.359375 -8918.4990234375 411.0
v -25875.5234375 -12363.5576171875 409.24603271484375
v -29205.224609375 -10142.1259765625 409.24603271484375
v -26700.427734375 -13626.833984375 407.5003967285156
v -30052.880859375 -11372.61328125 407.5003967285156
v -27516.615234375 -14877.5341796875 405.7545471191406
v -30908.869140625 -12615.98046875 405.7545471191406
v -28313.939453125 -16120.9677734375 404.0
v -31763.80859375 -13879.0322265625 404.0
v -29971.146484375 -18574.19140625 400.5331726074219
v -33355.68359375 -16378.41015625 400.5331726074219
v -30758.216796875 -19776.138671875 398.782470703125
v -34156.46875 -17677.474609375 398.782470703125
v -31132.90625 -20374.5078125 397.8960876464844
v -34549.3671875 -18345.35546875 397.8960876464844
v -31491.171875 -20971.83984375 397.0
v -34933.26953125 -19028.16015625 397.0
v -32203.578125 -22149.89453125 395.2937927246094
v -35585.0 -20287.544921875 395.2937927246094
v -32546.220703125 -22731.67578125 394.4349060058594
v -35909.0390625 -20932.76171875 394.4349060058594
v -32876.0859375 -23310.015625 393.569580078125
v -36227.53125 -21590.591796875 393.569580078125
v -33190.4453125 -23886.28515625 392.6949768066406
v -36537.17578125 -22263.732421875 392.6949768066406
v -33485.91796875 -24460.958984375 391.8092346191406
v -36833.80078125 -22954.4140625 391.8092346191406
v -33758.578125 -25033.703125 390.9113464355469
v -37112.3046875 -23664.37890625 390.9113464355469
v -34004.41796875 -25604.208984375 390.0
v -37366.9140625 -24395.791015625 390.0
v -34227.34765625 -26168.521484375 389.14947509765625
v -37566.859375 -25046.537109375 389.14947509765625
v -34435.18359375 -26730.875 388.29254150390625
v -37753.70703125 -25708.376953125 388.29254150390625
v -34625.54296875 -27291.43359375 387.4285583496094
v -37924.0703125 -26382.04296875 387.4285583496094
v -34795.94921875 -27850.193359375 386.5572204589844
v -38074.20703125 -27068.056640625 386.5572204589844
v -34943.9765625 -28407.537109375 385.6776123046875
v -38200.09375 -27767.3125 385.6776123046875
v -35066.89453125 -28962.830078125 384.7906188964844
v -38297.1015625 -28479.1484375 384.7906188964844
v -35162.05859375 -29515.41796875 383.8975830078125
v -38360.390625 -29202.328125 383.8975830078125
v -35226.984375 -30064.88671875 383.0
v -38385.07421875 -29935.11328125 383.0
v -35250.1953125 -30640.4765625 382.1106262207031
v -38390.5078125 -30630.06640625 382.1106262207031
v -35250.578125 -31210.388671875 381.2212829589844
v -38368.16796875 -31330.619140625 381.2212829589844
v -35226.31640625 -31774.25 380.33343505859375
v -38314.83203125 -32035.146484375 380.33343505859375
v -35175.79296875 -32331.486328125 379.4490966796875
v -38227.61328125 -32741.2421875 379.4490966796875
v -35097.703125 -32881.19140625 378.5712890625
v -38104.2421875 -33445.5390625 378.5712890625
v -34990.94140625 -33423.23828125 377.70208740234375
v -37943.02734375 -34145.21484375 377.70208740234375
v -34854.7109375 -33957.26953125 376.8440856933594
v -37743.125 -34836.90234375 376.8440856933594
v -34688.54296875 -34482.875 376.0
v -37504.625 -35517.125 376.0
v -34444.5625 -35112.109375 375.0465393066406
v -37220.39453125 -36249.98828125 375.0465393066406
v -34178.8828125 -35723.16015625 374.10791015625
v -36902.98828125 -36979.83984375 374.10791015625
v -33888.28125 -36315.92578125 373.187744140625
v -36549.11328125 -37701.5625 373.187744140625
v -33571.85546875 -36887.93359375 372.293701171875
v -36158.953125 -38406.7890625 372.293701171875
v -33227.09375 -37441.61328125 371.4254455566406
v -35731.37109375 -39093.45703125 371.4254455566406
v -32853.37890625 -37977.12890625 370.58575439453125
v -35267.98046875 -39757.4921875 370.58575439453125
v -32450.970703125 -38494.52734375 369.77679443359375
v -34771.6015625 -40395.7578125 369.77679443359375
v -32020.90234375 -38993.8046875 369.0
v -34245.828125 -41006.1953125 369.0
v -31718.435546875 -39317.5703125 368.49853515625
v -33879.08984375 -41398.8125 368.49853515625
v -31400.626953125 -39638.37890625 368.00860595703125
v -33503.5859375 -41777.90234375 368.00860595703125
v -31069.20703125 -39956.25 367.5288391113281
v -33120.4140625 -42145.44140625 367.5288391113281
v -30729.64453125 -40267.69921875 367.06329345703125
v -32734.95703125 -42499.00390625 367.06329345703125
v -30022.31640625 -40880.7890625 366.1576843261719
v -31949.78515625 -43179.671875 366.1576843261719
v -29290.041015625 -41477.66015625 365.2867736816406
v -31155.75 -43826.94140625 365.2867736816406
v -28535.83203125 -42063.4765625 364.44000244140625
v -30352.625 -44450.7890625 364.44000244140625
v -27764.876953125 -42640.1328125 363.6127014160156
v -29543.525390625 -45056.0 363.6127014160156
v -26981.04296875 -43209.6796875 362.8006286621094
v -28730.796875 -45646.5546875 362.8006286621094
v -26187.328125 -43774.18359375 362.0
v -27916.34375 -46225.81640625 362.0
v -25240.072265625 -44422.97265625 361.0606689453125
v -26904.416015625 -46918.9609375 361.0606689453125
v -24267.736328125 -45056.92578125 360.1505432128906
v -25882.62109375 -47585.1953125 360.1505432128906
v -23277.2421875 -45678.8984375 359.2633972167969
v -24854.97265625 -48230.51953125 359.2633972167969
v -22275.080078125 -46290.88671875 358.3951416015625
v -23825.986328125 -48858.8984375 358.3951416015625
v -20243.638671875 -47499.94140625 356.6908874511719
v -21766.787109375 -50084.515625 356.6908874511719
v -18190.912109375 -48708.6171875 355.0
v -19717.119140625 -51291.3828125 355.0
v -17110.34765625 -49339.1640625 354.106201171875
v -18609.533203125 -51937.7109375 354.106201171875
v -16019.1904296875 -49962.97265625 353.2251281738281
v -17499.1015625 -52572.54296875 353.2251281738281
v -13816.2138671875 -51199.7890625 351.4864196777344
v -15277.9462890625 -53819.58984375 351.4864196777344
v -11598.337890625 -52438.84765625 349.7544860839844
v -13067.07421875 -55054.7265625 349.7544860839844
v -9378.0341796875 -53701.546875 348.0
v -10880.0537109375 -56298.453125 348.0
v -5113.40380859375 -56157.70703125 344.55877685546875
v -6629.75390625 -58758.3125 344.55877685546875
v -2977.33251953125 -57417.9453125 342.80621337890625
v -4532.4619140625 -60001.734375 342.80621337890625
v -1913.1353759765625 -58064.31640625 341.91143798828125
v -3497.18701171875 -60633.6484375 341.91143798828125
v -854.304443359375 -58725.12890625 341.0
v -2474.838623046875 -61274.87109375 341.0
v 1015.5902099609375 -59929.3984375 339.3294677734375
v -629.8856811523438 -62457.09765625 339.3294677734375
v 1947.72021484375 -60542.98828125 338.4814758300781
v 282.8785400390625 -63054.90234375 338.4814758300781
v 2876.31591796875 -61166.71875 337.6219787597656
v 1186.917236328125 -63659.046875 337.6219787597656
v 3800.65673828125 -61803.29296875 336.74761962890625
v 2080.85205078125 -64271.51953125 336.74761962890625
v 4720.74365234375 -62456.53515625 335.8538513183594
v 2963.76708984375 -64895.11328125 335.8538513183594
v 5632.45947265625 -63128.12109375 334.9391784667969
v 3830.519287109375 -65530.2109375 334.9391784667969
v 6532.9697265625 -63821.55078125 334.0
v 4676.88720703125 -66178.4453125 334.0
v 7270.6552734375 -64409.73828125 333.1928405761719
v 5385.38134765625 -66743.3515625 333.1928405761719
v 8003.00830078125 -65010.1953125 332.3720397949219
v 6083.19091796875 -67315.46875 332.3720397949219
v 8728.5009765625 -65625.0390625 331.5353088378906
v 6768.11474609375 -67895.921875 331.5353088378906
v 9445.2060546875 -66256.6796875 330.6802978515625
v 7437.4140625 -68485.75 330.6802978515625
v 10150.791015625 -66907.953125 329.8042297363281
v 8087.7802734375 -69086.0234375 329.8042297363281
v 10845.8359375 -67585.8046875 328.8993225097656
v 8718.29296875 -69700.8828125 328.8993225097656
v 11523.4482421875 -68291.71875 327.96575927734375
v 9320.939453125 -70328.6171875 327.96575927734375
v 11854.4716796875 -68657.09375 327.4866027832031
v 9610.087890625 -70647.7578125 327.4866027832031
v 12178.29296875 -69030.5625 327.0
v 9889.015625 -70969.4375 327.0
v 12442.83984375 -69352.4765625 326.5997314453125
v 10093.580078125 -71219.328125 326.5997314453125
v 12693.13671875 -69676.859375 326.1954650878906
v 10288.11328125 -71472.46875 326.1954650878906
v 12934.3583984375 -70009.4296875 325.7792053222656
v 10477.3916015625 -71734.546875 325.7792053222656
v 13164.115234375 -70345.828125 325.35546875
v 10660.279296875 -72003.515625 325.35546875
v 13591.5849609375 -71025.65625 324.4869384765625
v 11011.2041015625 -72564.4296875 324.4869384765625
v 13980.7392578125 -71704.09375 323.5975646972656
v 11349.0244140625 -73156.515625 323.5975646972656
v 14683.162109375 -73014.890625 321.78863525390625
v 12027.60546875 -74429.9296875 321.78863525390625
v 15019.353515625 -73631.359375 320.8876953125
v 12391.5517578125 -75100.5 320.8876953125
v 15361.0888671875 -74217.4609375 320.0
v 12787.4697265625 -75782.5390625 320.0
v -40250.58203125 18688.216796875 5153.1142578125
v -39749.41796875 19311.783203125 5153.1142578125
v -39574.54296875 19174.818359375 5141.060546875
v -40079.6484375 18546.974609375 5141.060546875
v -39400.76171875 19039.00390625 5123.693359375
v -39907.9453125 18405.40234375 5123.693359375
v -39226.55078125 18904.0390625 5089.044921875
v -39735.0 18264.0234375 5089.044921875
v -39049.55859375 18766.412109375 5051.609375
v -39565.92578125 18125.314453125 5051.609375
v -38874.2109375 18628.66015625 5023.1982421875
v -39396.34375 17984.775390625 5023.1982421875
v -38696.3984375 18486.501953125 4999.2236328125
v -39230.7265625 17845.130859375 4999.2236328125
v -38520.3359375 18341.048828125 4981.52880859375
v -39067.609375 17703.02734375 4981.52880859375
v -38350.5859375 18199.220703125 4962.98193359375
v -38899.9921875 17555.396484375 4962.98193359375
v -38179.19921875 18057.197265625 4934.7060546875
v -38731.54296875 17408.251953125 4934.7060546875
v -38005.56640625 17912.248046875 4903.5810546875
v -38566.8828125 17263.373046875 4903.5810546875
v -37834.296875 17768.439453125 4872.22265625
v -38400.3515625 17116.0078125 4872.22265625
v -37655.4375 17612.908203125 4843.89501953125
v -38245.671875 16974.33984375 4843.89501953125
v -37484.2421875 17456.01953125 4823.60009765625
v -38091.93359375 16825.978515625 4823.60009765625
v -37308.9921875 17282.880859375 4809.20947265625
v -37953.05078125 16681.5234375 4809.20947265625
v -37144.921875 17103.40234375 4803.1669921875
v -37820.34765625 16528.521484375 4803.1669921875
v -36987.80078125 16913.349609375 4797.19677734375
v -37697.54296875 16371.7998046875 4797.19677734375
v -36841.09375 16713.34765625 4779.46630859375
v -37585.27734375 16209.7763671875 4779.46630859375
v -36709.88671875 16517.67578125 4763.11328125
v -37473.0703125 16032.5009765625 4763.11328125
v -36583.0625 16314.0146484375 4761.69970703125
v -37369.234375 15855.435546875 4761.69970703125
v -36467.69921875 16118.9287109375 4762.11328125
v -37262.91796875 15664.42578125 4762.11328125
v -36352.875 15919.4873046875 4752.384765625
v -37160.50390625 15475.255859375 4752.384765625
v -36243.2421875 15725.455078125 4742.6572265625
v -37056.18359375 15278.85546875 4742.6572265625
v -36133.28515625 15533.541015625 4743.97021484375
v -36949.84765625 15081.50390625 4743.97021484375
v -36018.00390625 15324.0751953125 4741.6572265625
v -36855.12109375 14898.39453125 4741.6572265625
v -35911.18359375 15109.3994140625 4719.12890625
v -36768.09765625 14711.1572265625 4719.12890625
v -35815.796875 14910.4697265625 4693.20166015625
v -36676.11328125 14505.833984375 4693.20166015625
v -35718.1171875 14704.1767578125 4677.15673828125
v -36588.203125 14306.8447265625 4677.15673828125
v -35628.4921875 14523.0791015625 4664.4970703125
v -36485.49609375 14085.35546875 4664.4970703125
v -35528.7890625 14338.783203125 4657.1337890625
v -36378.546875 13874.9365234375 4657.1337890625
v -35431.26171875 14178.4140625 4643.34423828125
v -36250.62109375 13651.958984375 4643.34423828125
v -35320.73046875 14024.9345703125 4607.09765625
v -36106.31640625 13439.509765625 4607.09765625
v -35193.9296875 13867.162109375 4563.25244140625
v -35960.41015625 13247.701171875 4563.25244140625
v -35062.11328125 13716.03515625 4522.76611328125
v -35804.18359375 13058.744140625 4522.76611328125
v -34922.90234375 13569.5107421875 4478.94970703125
v -35641.953125 12878.7275390625 4478.94970703125
v -34778.01171875 13428.8056640625 4427.85302734375
v -35472.12109375 12704.900390625 4427.85302734375
v -34629.34765625 13296.2060546875 4371.4111328125
v -35294.96484375 12538.30078125 4371.4111328125
v -34474.71875 13169.1904296875 4310.16162109375
v -35112.71484375 12380.421875 4310.16162109375
v -34323.52734375 13057.4501953125 4243.208984375
v -34915.78125 12226.6494140625 4243.208984375
v -34167.09765625 12956.4736328125 4170.04296875
v -34711.62890625 12086.78515625 4170.04296875
v -34004.71484375 12864.2509765625 4090.109130859375
v -34504.47265625 11961.4609375 4090.109130859375
v -33842.70703125 12785.349609375 3999.943359375
v -34286.5234375 11847.36328125 3999.943359375
v -33657.546875 12703.826171875 3906.0947265625
v -34086.9921875 11752.81640625 3906.0947265625
v -33479.08984375 12630.685546875 3815.765869140625
v -33879.27734375 11660.72265625 3815.765869140625
v -33280.76953125 12551.7666015625 3722.5595703125
v -33691.7890625 11580.048828125 3722.5595703125
v -33087.1796875 12472.1787109375 3618.645751953125
v -33505.015625 11497.087890625 3618.645751953125
v -32901.1171875 12396.6044921875 3515.4765625
v -33309.46484375 11411.197265625 3515.4765625
v -32716.298828125 12324.0185546875 3429.800048828125
v -33118.1328125 11329.71875 3429.800048828125
v -32531.916015625 12253.8828125 3345.499755859375
v -32923.68359375 11249.3154296875 3345.499755859375
v -32352.080078125 12188.9892578125 3250.3330078125
v -32729.40234375 11172.7529296875 3250.3330078125
v -32157.740234375 12119.2548828125 3156.651611328125
v -32547.919921875 11101.6494140625 3156.651611328125
v -31969.525390625 12050.4365234375 3081.583251953125
v -32363.75 11028.1796875 3081.583251953125
v -31769.748046875 11973.810546875 3005.531982421875
v -32193.99609375 10957.3671875 3005.531982421875
v -31573.318359375 11892.2021484375 2907.129150390625
v -32023.66796875 10880.712890625 2907.129150390625
v -31380.154296875 11806.9072265625 2808.349365234375
v -31853.994140625 10799.8134765625 2808.349365234375
v -31188.673828125 11717.076171875 2729.817138671875
v -31688.357421875 10716.11328125 2729.817138671875
v -31003.521484375 11626.2841796875 2653.587158203125
v -31517.873046875 10626.2626953125 2653.587158203125
v -30819.166015625 11532.8896484375 2565.4228515625
v -31350.916015625 10535.490234375 2565.4228515625
v -30638.078125 11438.3896484375 2478.258544921875
v -31182.205078125 10441.125 2478.258544921875
v -30456.38671875 11341.12890625 2404.701904296875
v -31014.384765625 10344.9921875 2404.701904296875
v -30277.328125 11243.2080078125 2332.195068359375
v -30845.005859375 10245.986328125 2332.195068359375
v -30096.390625 11142.783203125 2248.105712890625
v -30673.50390625 10144.4365234375 2248.105712890625
v -29914.064453125 11039.3037109375 2163.267578125
v -30505.796875 10043.0068359375 2163.267578125
v -29731.107421875 10932.4541015625 2084.478271484375
v -30336.791015625 9938.0751953125 2084.478271484375
v -29550.234375 10824.337890625 2005.55322265625
v -30167.96484375 9830.8955078125 2005.55322265625
v -29368.208984375 10712.8525390625 1918.52099609375
v -29999.22265625 9721.4404296875 1918.52099609375
v -29189.982421875 10601.939453125 1832.04052734375
v -29827.91015625 9608.6162109375 1832.04052734375
v -29010.0546875 10488.4814453125 1752.5758056640625
v -29656.806640625 9494.8525390625 1752.5758056640625
v -28832.69921875 10375.9384765625 1675.87841796875
v -29482.07421875 9377.9951171875 1675.87841796875
v -28653.494140625 10261.9658203125 1600.139404296875
v -29306.2578125 9260.7333984375 1600.139404296875
v -28474.375 10147.7998046875 1524.286865234375
v -29130.642578125 9143.3798828125 1524.286865234375
v -28294.6484375 10032.8037109375 1443.0404052734375
v -28953.25 9025.19921875 1443.0404052734375
v -28112.09375 9915.2998046875 1364.19677734375
v -28777.794921875 8907.64453125 1364.19677734375
v -27930.29296875 9796.6865234375 1296.4132080078125
v -28600.9921875 8788.6982421875 1296.4132080078125
v -27746.0390625 9674.9619140625 1231.6973876953125
v -28426.392578125 8669.7919921875 1231.6973876953125
v -27563.091796875 9551.5537109375 1162.2174072265625
v -28250.666015625 8549.0546875 1162.2174072265625
v -27377.6640625 9424.04296875 1096.188232421875
v -28077.861328125 8428.0458984375 1096.188232421875
v -27194.37109375 9294.048828125 1040.2864990234375
v -27905.052734375 8304.9931640625 1040.2864990234375
v -27010.47265625 9160.568359375 991.6266479492188
v -27732.84765625 8179.50390625 991.6266479492188
v -26827.98828125 9023.3720703125 951.1937866210938
v -27562.3125 8052.7392578125 951.1937866210938
v -26650.84765625 8887.97265625 915.744384765625
v -27387.13671875 7920.35302734375 915.744384765625
v -26472.939453125 8749.66015625 881.6561279296875
v -27213.474609375 7788.92041015625 881.6561279296875
v -26299.8359375 8614.7744140625 851.3472290039062
v -27034.38671875 7653.076171875 851.3472290039062
v -26126.025390625 8479.880859375 825.3320922851562
v -26854.490234375 7519.06689453125 825.3320922851562
v -25948.880859375 8342.654296875 805.8551635742188
v -26676.689453125 7386.8623046875 805.8551635742188
v -25773.248046875 8205.7880859375 797.4861450195312
v -26497.224609375 7253.95703125 797.4861450195312
v -25593.330078125 8064.36572265625 794.060791015625
v -26323.03125 7123.8271484375 794.060791015625
v -25413.625 7918.56591796875 790.9952392578125
v -26152.091796875 6992.314453125 790.9952392578125
v -25248.541015625 7785.04931640625 788.1026000976562
v -25965.728515625 6849.53369140625 788.1026000976562
v -25076.267578125 7649.90087890625 783.5639038085938
v -25782.82421875 6713.00927734375 783.5639038085938
v -24917.03515625 7530.93310546875 777.6831665039062
v -25580.25 6569.35986328125 777.6831665039062
v -24748.755859375 7416.20263671875 770.3548583984375
v -25377.04296875 6436.21435546875 770.3548583984375
v -24584.71484375 7314.169921875 761.0183715820312
v -25159.529296875 6306.5107421875 761.0183715820312
v -24415.517578125 7222.85791015625 748.4783935546875
v -24936.12109375 6188.126953125 748.4783935546875
v -24232.056640625 7133.6279296875 734.618896484375
v -24718.615234375 6084.40625 734.618896484375
v -24048.908203125 7054.046875 721.4224853515625
v -24495.208984375 5985.64111328125 721.4224853515625
v -23853.556640625 6975.7998046875 707.4619140625
v -24279.052734375 5897.51220703125 707.4619140625
v -23659.30859375 6905.01220703125 691.1561889648438
v -24058.50390625 5811.45458984375 691.1561889648438
v -23454.525390625 6834.22900390625 674.9786987304688
v -23845.806640625 5732.57470703125 674.9786987304688
v -23247.794921875 6765.72021484375 661.8242797851562
v -23634.015625 5653.087890625 661.8242797851562
v -23054.58203125 6706.3193359375 648.8281860351562
v -23405.783203125 5573.04931640625 648.8281860351562
v -22857.703125 6655.20263671875 633.3823852539062
v -23176.408203125 5499.86376953125 633.3823852539062
v -22652.24609375 6607.029296875 617.6185302734375
v -22952.685546875 5434.3681640625 617.6185302734375
v -22451.212890625 6567.02099609375 602.9425048828125
v -22721.66796875 5371.93359375 602.9425048828125
v -22222.2890625 6521.48876953125 588.87451171875
v -22517.943359375 5317.17578125 588.87451171875
v -22002.146484375 6476.470703125 575.9295043945312
v -22305.845703125 5256.9423828125 575.9295043945312
v -21757.21875 6418.94189453125 562.4796142578125
v -22121.349609375 5198.6396484375 562.4796142578125
v -21514.1328125 6348.3828125 545.9391479492188
v -21941.353515625 5129.9892578125 545.9391479492188
v -21303.48046875 6283.2861328125 529.6687622070312
v -21731.9765625 5046.68359375 529.6687622070312
v -21088.498046875 6218.4658203125 517.2079467773438
v -21523.7578125 4965.61376953125 517.2079467773438
v -20859.3359375 6145.47265625 505.1343078613281
v -21331.5859375 4887.322265625 505.1343078613281
v -20641.76953125 6073.27587890625 490.34747314453125
v -21129.689453125 4803.30322265625 490.34747314453125
v -20378.70703125 5969.69873046875 475.3437805175781
v -20981.185546875 4731.34228515625 475.3437805175781
v -20143.513671875 5858.375 461.4308776855469
v -20817.517578125 4640.28125 461.4308776855469
v -19850.12109375 5672.4912109375 449.4161071777344
v -20737.640625 4580.34423828125 449.4161071777344
v -19604.677734375 5447.40966796875 441.1529235839844
v -20661.396484375 4498.68408203125 441.1529235839844
v -19394.896484375 5183.09326171875 436.0
v -20601.208984375 4409.68310546875 436.0
v -19389.53436420049 5173.082351456614 431.2338569908567
v -19632.65634445141 4738.313540800087 435.0996710468658
v -19655.32821431706 4697.77001657132 430.5613727546348
v -20562.572265625 4319.8916015625 434.7252502441406
v -19776.831897135176 4480.488092433078 430.25395664511143
v -19831.089377412256 4383.460830048416 435.0
v -20511.095703125 4161.27783203125 435.0
v -19918.190866944366 4227.699467084841 434.79720260347483
v -19975.530559983814 4125.160362556147 429.7512297442992
v -20477.97265625 4016.855712890625 434.499267578125
v -20027.077912399218 4032.979552417108 434.34746611213694
v -20108.074170650332 3888.1360181915225 429.4158815458888
v -20448.7890625 3832.501708984375 434.0
v -20142.302660872712 3826.9260857568115 433.897401918231
v -20227.683474077665 3674.24176420064 429.1132584000746
v -20429.291015625 3653.46630859375 433.5001220703125
v -20247.117794953403 3639.4878659132823 433.43928476966613
v -20337.67239617473 3477.5513917539383 433.0
v -20420.40625 3473.961669921875 433.0
v -20345.250952300128 3463.9988539301958 428.8158012701889
v -20420.6193186618 3329.2195346338917 428.6251119887559
v -22521.01197640295 5318.000574858235 589.0864119084293
v -22514.88581500455 5316.307472323057 588.687899876972
v -22312.204371692507 5258.748174654477 576.3175945442953
v -22299.54281758067 5254.950603722667 575.4700197713478
v -22133.858662728886 5202.592642780906 563.3915327158375
v -22109.092087054905 5193.9646375645525 561.3532279527632
v -21944.360494363813 5131.136117506617 546.215469670895
v -21938.3632476017 5128.799507652859 545.7067784668786
v -21520.511064101087 4964.291032710598 517.0039623606874
v -21527.00175180645 4966.8767942962395 517.4020797547826
v -21527.013263714176 4966.881277177347 517.4027686976569
v -21333.144068110858 4887.957053565777 505.2322009915246
v -21330.03259712055 4886.675844403303 505.0205417027892
v -21141.508290049038 4808.221621163462 491.21308102612227
v -21118.169336109313 4797.720888551429 489.18356911604786
v -20992.62789646956 4736.886935292531 476.4998275238966
v -20970.07453691768 4725.160378726589 474.3992682646152
v -20793.002269750345 4621.885777115084 457.7433834518997
v -20818.0851994346 4639.4067535976155 461.43614029172954
v -20844.300747679456 4655.182779987943 463.70763127631295
v -20710.553546304254 4551.333024297873 446.4804651408969
v -20729.120201807476 4570.084825730731 448.4313893811458
v -20748.754086069635 4587.716086103511 451.01789932242514
v -20769.387682695175 4604.166175581909 454.19137210188455
v -20641.630539275327 4469.455614051153 439.4606717930999
v -20662.476646487932 4497.823275211878 441.16090928525153
v -20685.476467417546 4524.474590805204 443.7626627611048
v -20584.416345407666 4370.657112677067 435.44595677075074
v -20596.384712258172 4396.230401492837 435.8139856205786
v -20609.933331356973 4421.002761623406 436.68410850990534
v -20625.00886229878 4444.876665215943 438.03761499064376
v -20570.807048378556 4339.029187561133 434.99694224191546
v -20556.14098171319 4300.075006696106 434.7595764228677
v -20517.237208579172 4180.201537954382 434.9672204777826
v -20506.6482010082 4141.885966210016 434.9327655902356
v -20481.416908213294 4031.873237373521 434.55133551238356
v -20475.56362809636 4001.6377795048024 434.45805436558487
v -20450.4963442863 3843.2866806981738 434.02920786418304
v -20447.606877576316 3821.6466242415663 433.969691930892
v -20430.72922172669 3666.6722367008906 433.5369938397357
v -20428.63431379093 3640.1985387487402 433.46315642656975
v -20420.972840891438 3485.40887039232 433.0318933128465
v -20420.423121540935 3462.500468448923 432.9687288128287
v -20480.591891880973 3222.2650333180754 428.4737754028222
v -20466.77951464734 3248.1375607705795 428.5099013163423
v -20421.44578241408 3417.0429778437415 432.84469699155045
v -20420.446889166746 3446.3546078547997 432.924675819792
v -20424.351918189303 3387.858670134277 432.76505789340285
v -20454.68181356559 3274.854878565622 428.54598844485616
v -20429.15295195322 3358.9256523790814 432.68609681235455
v -20444.350176649463 3302.3034982077484 428.58179935767384
v -20435.82849011308 3330.366824813843 428.61718193897855
v -21889.155251445773 778.9729632057363 425.0131791067088
v -21900.3216190534 760.6297322830305 424.98693680906024
v -19780.476619694695 5608.624395719797 447.0714314982841
v -19758.269971521106 5589.551837206524 446.3454790639539
v -19094.178934911535 5702.67269805442 431.98265867609496
v -19079.539024225098 5728.021676859116 432.01892309148434
v -19734.87028124343 5571.963426071437 445.6225985653251
v -19110.435966898323 5678.329185113014 431.9466231891906
v -19710.37656684215 5555.933589323168 444.90584893891554
v -19128.24132703236 5655.094149889347 431.91084923518105
v -19684.892475763245 5541.530158716891 444.19826317788295
v -19147.51967026501 5633.06591361061 431.8754881949026
v -19658.52584632435 5528.8140837179 443.502835497631
v -19168.189418481736 5612.337690821257 431.84068970190805
v -19631.38825138682 5517.839173588239 442.8225086655059
v -19190.163105707517 5592.9971949369365 431.8066010092791
v -19603.594526224682 5508.651869687772 442.16016154820096
v -19213.34774822732 5575.126267076956 431.7733663665105
v -19575.262282588472 5501.291048953219 441.51859692956305
v -19237.645238055404 5558.800529745919 431.74112640910505
v -19546.51141102006 5495.787859386757 441.1529235839844
v -19262.95275808843 5544.089066830027 431.7100175634614
v -19517.46357352461 5492.165588250336 440.86031536630287
v -19289.163217185684 5531.054131262134 431.68017146957277
v -19488.241688746417 5490.439563523446 440.5622656447938
v -19316.16570333524 5519.750881592638 431.65171442398014
v -19458.969411827147 5490.617089041336 440.28650569846496
v -19343.84595298854 5510.22714858091 431.6247668453365
v -19429.770611147538 5492.6974135881555 440.0342024313505
v -19372.086834577305 5502.523232794955 431.5994427648443
v -19400.768844166723 5496.67173407579 431.5758493437212
v -21302.00061444231 6282.839935314852 529.5829868620979
v -21304.957222980414 6283.742485661004 529.7828238905972
vt -97.010810546875 -756.45078125
vt -84.986982421875 -732.106796875
vt -126.8403515625 -743.54921875
vt -116.890244140625 -718.042421875
vt -78.9273486328125 -719.652734375
vt -112.089599609375 -705.51140625
vt -73.00548828125 -706.906875
vt -107.59490234375 -693.093125
vt -67.7349462890625 -694.457578125
vt -103.10978515625 -680.76171875
vt -62.59169921875 -681.85953125
vt -98.81787109375 -668.460703125
vt -57.6332763671875 -669.078046875
vt -94.77673828125 -656.17625
vt -52.92791015625 -656.089921875
vt -91.050869140625 -643.9100390625
vt -49.0029443359375 -643.3279296875
vt -87.321728515625 -631.9023828125
vt -45.3301806640625 -630.445234375
vt -83.854892578125 -619.8684765625
vt -41.9425390625 -617.43078125
vt -80.6783056640625 -607.8030078125
vt -38.8784765625 -604.2870703125
vt -77.8240087890625 -595.7129296875
vt -36.5183251953125 -591.31046875
vt -75.048359375 -583.85390625
vt -34.49310546875 -578.292109375
vt -72.5720751953125 -571.91890625
vt -32.7996875 -565.2376953125
vt -70.3936669921875 -559.9105078125
vt -31.434970703125 -552.1608984375
vt -68.5122216796875 -547.8391015625
vt -30.52144775390625 -539.1538671875
vt -66.866181640625 -535.9136328125
vt -29.9518212890625 -526.1789453125
vt -65.52650390625 -523.900078125
vt -29.6946923828125 -513.2434375
vt -64.47 -511.806875
vt -29.7179736328125 -500.3553515625
vt -63.6721435546875 -499.6446484375
vt -29.91883056640625 -487.433203125
vt -63.260498046875 -487.55421875
vt -30.4188818359375 -474.5710546875
vt -63.1304541015625 -475.4055859375
vt -31.18086669921875 -461.7725390625
vt -63.25169921875 -463.206328125
vt -32.1679443359375 -449.038125
vt -63.5931005859375 -450.961875
vt -33.179794921875 -436.19890625
vt -64.3726123046875 -438.7396484375
vt -34.4355615234375 -423.4105859375
vt -65.389921875 -426.50390625
vt -35.910576171875 -410.6762890625
vt -66.623583984375 -414.2591796875
vt -37.5809716796875 -397.994375
vt -68.052451171875 -402.005625
vt -39.3536767578125 -385.193984375
vt -69.7943310546875 -389.7119921875
vt -41.3333740234375 -372.4290234375
vt -71.7367919921875 -377.4409765625
vt -43.513515625 -359.704453125
vt -73.873935546875 -365.197265625
vt -45.888408203125 -347.0196875
vt -76.200654296875 -352.9803125
vt -48.8947998046875 -334.311875
vt -78.3304296875 -340.55984375
vt -52.0934130859375 -321.64890625
vt -80.6503515625 -328.1723828125
vt -55.4877294921875 -309.03908203125
vt -83.164775390625 -315.824453125
vt -59.0825244140625 -296.4839453125
vt -85.878974609375 -303.5160546875
vt -63.6607763671875 -284.00376953125
vt -88.11390625 -290.82712890625
vt -68.4245166015625 -271.60796875
vt -90.5557421875 -278.1589453125
vt -73.372294921875 -259.3047265625
vt -93.206298828125 -265.5190234375
vt -78.5056201171875 -247.093671875
vt -96.068740234375 -252.906328125
vt -81.9103564453125 -234.0246484375
vt -101.23615234375 -240.7725
vt -85.52939453125 -221.004921875
vt -106.589140625 -228.7230859375
vt -89.34759765625 -208.041015625
vt -112.1134375 -216.75900390625
vt -93.353271484375 -195.12849609375
vt -117.79978515625 -204.87150390625
vt -98.215625 -182.18365234375
vt -123.219990234375 -192.60720703125
vt -103.261201171875 -169.330703125
vt -128.827373046875 -180.39845703125
vt -108.459296875 -156.56689453125
vt -134.5940625 -168.24123046875
vt -113.78501953125 -143.878798828125
vt -140.498251953125 -156.121201171875
vt -119.670966796875 -131.0835546875
vt -146.35705078125 -143.733896484375
vt -125.69423828125 -118.38611328125
vt -152.37666015625 -131.38337890625
vt -131.82279296875 -105.777744140625
vt -158.5261328125 -119.063662109375
vt -138.0306640625 -93.240712890625
vt -164.780390625 -106.759287109375
vt -144.514755859375 -80.5470458984375
vt -171.14884765625 -94.307421875
vt -151.096982421875 -67.921904296875
vt -177.63025390625 -81.8907958984375
vt -164.49060546875 -42.854072265625
vt -190.8672265625 -57.145927734375
vt -178.188671875 -17.49939208984375
vt -204.75134765625 -32.3173095703125
vt -192.233515625 7.696680908203125
vt -218.9451953125 -7.696680908203125
vt -205.97646484375 33.59139892578125
vt -234.5574609375 16.623746337890626
vt -212.99890625 46.4845654296875
vt -242.47404296875 28.68080322265625
vt -220.13669921875 59.336650390625
vt -250.47673828125 40.663349609375
vt -227.62076171875 72.326767578125
vt -258.6455078125 52.835361328125
vt -235.19763671875 85.22873046875
vt -266.9307421875 64.970966796875
vt -250.51857421875 110.815009765625
vt -283.75359375 89.184990234375
vt -258.755234375 123.635576171875
vt -292.05224609375 101.421259765625
vt -267.00427734375 136.26833984375
vt -300.52880859375 113.7261328125
vt -275.16615234375 148.775341796875
vt -309.08869140625 126.1598046875
vt -283.13939453125 161.209677734375
vt -317.6380859375 138.790322265625
vt -299.71146484375 185.7419140625
vt -333.5568359375 163.7841015625
vt -307.58216796875 197.76138671875
vt -341.5646875 176.77474609375
vt -311.3290625 203.745078125
vt -345.493671875 183.4535546875
vt -314.91171875 209.7183984375
vt -349.3326953125 190.2816015625
vt -322.03578125 221.4989453125
vt -355.85 202.87544921875
vt -325.46220703125 227.3167578125
vt -359.090390625 209.3276171875
vt -328.760859375 233.10015625
vt -362.2753125 215.90591796875
vt -331.904453125 238.8628515625
vt -365.3717578125 222.63732421875
vt -334.8591796875 244.60958984375
vt -368.3380078125 229.544140625
vt -337.58578125 250.33703125
vt -371.123046875 236.6437890625
vt -340.0441796875 256.04208984375
vt -373.669140625 243.95791015625
vt -342.2734765625 261.68521484375
vt -375.66859375 250.46537109375
vt -344.3518359375 267.30875
vt -377.5370703125 257.08376953125
vt -346.2554296875 272.9143359375
vt -379.240703125 263.8204296875
vt -347.9594921875 278.50193359375
vt -380.7420703125 270.68056640625
vt -349.439765625 284.07537109375
vt -382.0009375 277.673125
vt -350.6689453125 289.62830078125
vt -382.971015625 284.791484375
vt -351.6205859375 295.1541796875
vt -383.60390625 292.02328125
vt -352.26984375 300.6488671875
vt -383.8507421875 299.3511328125
vt -352.501953125 306.404765625
vt -383.905078125 306.3006640625
vt -352.50578125 312.10388671875
vt -383.6816796875 313.30619140625
vt -352.2631640625 317.7425
vt -383.1483203125 320.35146484375
vt -351.7579296875 323.31486328125
vt -382.2761328125 327.412421875
vt -350.97703125 328.8119140625
vt -381.042421875 334.455390625
vt -349.9094140625 334.2323828125
vt -379.4302734375 341.4521484375
vt -348.547109375 339.5726953125
vt -377.43125 348.3690234375
vt -346.8854296875 344.82875
vt -375.04625 355.17125
vt -344.445625 351.12109375
vt -372.2039453125 362.4998828125
vt -341.788828125 357.2316015625
vt -369.0298828125 369.7983984375
vt -338.8828125 363.1592578125
vt -365.4911328125 377.015625
vt -335.7185546875 368.8793359375
vt -361.58953125 384.067890625
vt -332.2709375 374.4161328125
vt -357.3137109375 390.9345703125
vt -328.5337890625 379.7712890625
vt -352.6798046875 397.574921875
vt -324.50970703125 384.9452734375
vt -347.716015625 403.957578125
vt -320.2090234375 389.938046875
vt -342.45828125 410.061953125
vt -317.18435546875 393.175703125
vt -338.7908984375 413.988125
vt -314.00626953125 396.3837890625
vt -335.035859375 417.7790234375
vt -310.6920703125 399.5625
vt -331.204140625 421.4544140625
vt -307.2964453125 402.6769921875
vt -327.3495703125 424.9900390625
vt -300.2231640625 408.807890625
vt -319.4978515625 431.79671875
vt -292.90041015625 414.7766015625
vt -311.5575 438.2694140625
vt -285.3583203125 420.634765625
vt -303.52625 444.507890625
vt -277.64876953125 426.401328125
vt -295.43525390625 450.56
vt -269.8104296875 432.096796875
vt -287.30796875 456.465546875
vt -261.87328125 437.7418359375
vt -279.1634375 462.2581640625
vt -252.40072265625 444.2297265625
vt -269.04416015625 469.189609375
vt -242.67736328125 450.5692578125
vt -258.8262109375 475.851953125
vt -232.772421875 456.788984375
vt -248.5497265625 482.3051953125
vt -222.75080078125 462.9088671875
vt -238.25986328125 488.588984375
vt -202.43638671875 474.9994140625
vt -217.66787109375 500.84515625
vt -181.90912109375 487.086171875
vt -197.17119140625 512.913828125
vt -171.1034765625 493.391640625
vt -186.09533203125 519.377109375
vt -160.191904296875 499.6297265625
vt -174.991015625 525.7254296875
vt -138.162138671875 511.997890625
vt -152.779462890625 538.1958984375
vt -115.98337890625 524.3884765625
vt -130.6707421875 550.547265625
vt -93.780341796875 537.01546875
vt -108.800537109375 562.98453125
vt -51.1340380859375 561.5770703125
vt -66.2975390625 587.583125
vt -29.7733251953125 574.179453125
vt -45.324619140625 600.01734375
vt -19.131353759765624 580.6431640625
vt -34.9718701171875 606.336484375
vt -8.54304443359375 587.2512890625
vt -24.74838623046875 612.7487109375
vt 10.155902099609374 599.293984375
vt -6.298856811523438 624.5709765625
vt 19.4772021484375 605.4298828125
vt 2.828785400390625 630.5490234375
vt 28.7631591796875 611.6671875
vt 11.86917236328125 636.59046875
vt 38.0065673828125 618.0329296875
vt 20.8085205078125 642.7151953125
vt 47.2074365234375 624.5653515625
vt 29.6376708984375 648.9511328125
vt 56.3245947265625 631.2812109375
vt 38.30519287109375 655.302109375
vt 65.329697265625 638.2155078125
vt 46.7688720703125 661.784453125
vt 72.706552734375 644.0973828125
vt 53.8538134765625 667.433515625
vt 80.0300830078125 650.101953125
vt 60.8319091796875 673.1546875
vt 87.285009765625 656.250390625
vt 67.6811474609375 678.95921875
vt 94.452060546875 662.566796875
vt 74.374140625 684.8575
vt 101.50791015625 669.07953125
vt 80.877802734375 690.860234375
vt 108.458359375 675.858046875
vt 87.1829296875 697.008828125
vt 115.234482421875 682.9171875
vt 93.20939453125 703.286171875
vt 118.544716796875 686.5709375
vt 96.10087890625 706.477578125
vt 121.7829296875 690.305625
vt 98.89015625 709.694375
vt 124.4283984375 693.524765625
vt 100.93580078125 712.19328125
vt 126.9313671875 696.76859375
vt 102.8811328125 714.7246875
vt 129.343583984375 700.094296875
vt 104.773916015625 717.34546875
vt 131.64115234375 703.45828125
vt 106.60279296875 720.03515625
vt 135.915849609375 710.2565625
vt 110.112041015625 725.644296875
vt 139.807392578125 717.0409375
vt 113.490244140625 731.56515625
vt 146.83162109375 730.14890625
vt 120.2760546875 744.299296875
vt 150.19353515625 736.31359375
vt 123.915517578125 751.005
vt 153.610888671875 742.174609375
vt 127.874697265625 757.825390625
vt -402.5058203125 -186.88216796875
vt -397.4941796875 -193.11783203125
vt -395.7454296875 -191.74818359375
vt -400.796484375 -185.46974609375
vt -394.0076171875 -190.3900390625
vt -399.079453125 -184.0540234375
vt -392.2655078125 -189.040390625
vt -397.35 -182.640234375
vt -390.4955859375 -187.66412109375
vt -395.6592578125 -181.25314453125
vt -388.742109375 -186.2866015625
vt -393.9634375 -179.84775390625
vt -386.963984375 -184.86501953125
vt -392.307265625 -178.45130859375
vt -385.203359375 -183.41048828125
vt -390.67609375 -177.0302734375
vt -383.505859375 -181.99220703125
vt -388.999921875 -175.55396484375
vt -381.7919921875 -180.57197265625
vt -387.3154296875 -174.08251953125
vt -380.0556640625 -179.12248046875
vt -385.668828125 -172.63373046875
vt -378.34296875 -177.68439453125
vt -384.003515625 -171.160078125
vt -376.554375 -176.12908203125
vt -382.45671875 -169.7433984375
vt -374.842421875 -174.5601953125
vt -380.9193359375 -168.25978515625
vt -373.089921875 -172.82880859375
vt -379.5305078125 -166.815234375
vt -371.44921875 -171.0340234375
vt -378.2034765625 -165.28521484375
vt -369.8780078125 -169.13349609375
vt -376.9754296875 -163.717998046875
vt -368.4109375 -167.1334765625
vt -375.8527734375 -162.097763671875
vt -367.0988671875 -165.1767578125
vt -374.730703125 -160.325009765625
vt -365.830625 -163.140146484375
vt -373.69234375 -158.55435546875
vt -364.6769921875 -161.189287109375
vt -372.6291796875 -156.6442578125
vt -363.52875 -159.194873046875
vt -371.6050390625 -154.75255859375
vt -362.432421875 -157.25455078125
vt -370.5618359375 -152.7885546875
vt -361.3328515625 -155.33541015625
vt -369.4984765625 -150.8150390625
vt -360.1800390625 -153.240751953125
vt -368.5512109375 -148.9839453125
vt -359.1118359375 -151.093994140625
vt -367.6809765625 -147.111572265625
vt -358.15796875 -149.104697265625
vt -366.7611328125 -145.05833984375
vt -357.181171875 -147.041767578125
vt -365.88203125 -143.068447265625
vt -356.284921875 -145.230791015625
vt -364.8549609375 -140.8535546875
vt -355.287890625 -143.38783203125
vt -363.78546875 -138.749365234375
vt -354.3126171875 -141.784140625
vt -362.5062109375 -136.51958984375
vt -353.2073046875 -140.249345703125
vt -361.0631640625 -134.39509765625
vt -351.939296875 -138.67162109375
vt -359.6041015625 -132.47701171875
vt -350.6211328125 -137.1603515625
vt -358.0418359375 -130.58744140625
vt -349.2290234375 -135.695107421875
vt -356.41953125 -128.787275390625
vt -347.7801171875 -134.288056640625
vt -354.7212109375 -127.04900390625
vt -346.2934765625 -132.962060546875
vt -352.9496484375 -125.3830078125
vt -344.7471875 -131.691904296875
vt -351.1271484375 -123.80421875
vt -343.2352734375 -130.574501953125
vt -349.1578125 -122.266494140625
vt -341.6709765625 -129.564736328125
vt -347.1162890625 -120.8678515625
vt -340.0471484375 -128.642509765625
vt -345.0447265625 -119.614609375
vt -338.4270703125 -127.85349609375
vt -342.865234375 -118.4736328125
vt -336.57546875 -127.03826171875
vt -340.869921875 -117.5281640625
vt -334.7908984375 -126.30685546875
vt -338.7927734375 -116.6072265625
vt -332.8076953125 -125.517666015625
vt -336.917890625 -115.80048828125
vt -330.871796875 -124.721787109375
vt -335.05015625 -114.97087890625
vt -329.011171875 -123.966044921875
vt -333.0946484375 -114.11197265625
vt -327.16298828125 -123.240185546875
vt -331.181328125 -113.2971875
vt -325.31916015625 -122.538828125
vt -329.2368359375 -112.493154296875
vt -323.52080078125 -121.889892578125
vt -327.2940234375 -111.727529296875
vt -321.57740234375 -121.192548828125
vt -325.47919921875 -111.016494140625
vt -319.69525390625 -120.504365234375
vt -323.6375 -110.281796875
vt -317.69748046875 -119.73810546875
vt -321.9399609375 -109.573671875
vt -315.73318359375 -118.922021484375
vt -320.2366796875 -108.80712890625
vt -313.80154296875 -118.069072265625
vt -318.53994140625 -107.998134765625
vt -311.88673828125 -117.17076171875
vt -316.88357421875 -107.1611328125
vt -310.03521484375 -116.262841796875
vt -315.17873046875 -106.262626953125
vt -308.19166015625 -115.328896484375
vt -313.50916015625 -105.35490234375
vt -306.38078125 -114.383896484375
vt -311.82205078125 -104.41125
vt -304.5638671875 -113.4112890625
vt -310.14384765625 -103.449921875
vt -302.77328125 -112.432080078125
vt -308.45005859375 -102.45986328125
vt -300.96390625 -111.42783203125
vt -306.7350390625 -101.444365234375
vt -299.14064453125 -110.393037109375
vt -305.05796875 -100.430068359375
vt -297.31107421875 -109.324541015625
vt -303.36791015625 -99.380751953125
vt -295.50234375 -108.24337890625
vt -301.6796484375 -98.308955078125
vt -293.68208984375 -107.128525390625
vt -299.9922265625 -97.214404296875
vt -291.89982421875 -106.01939453125
vt -298.2791015625 -96.086162109375
vt -290.100546875 -104.884814453125
vt -296.56806640625 -94.948525390625
vt -288.3269921875 -103.759384765625
vt -294.8207421875 -93.779951171875
vt -286.53494140625 -102.619658203125
vt -293.062578125 -92.607333984375
vt -284.74375 -101.477998046875
vt -291.30642578125 -91.433798828125
vt -282.946484375 -100.328037109375
vt -289.5325 -90.2519921875
vt -281.1209375 -99.152998046875
vt -287.77794921875 -89.0764453125
vt -279.3029296875 -97.966865234375
vt -286.009921875 -87.886982421875
vt -277.460390625 -96.749619140625
vt -284.26392578125 -86.697919921875
vt -275.63091796875 -95.515537109375
vt -282.50666015625 -85.490546875
vt -273.776640625 -94.2404296875
vt -280.77861328125 -84.280458984375
vt -271.9437109375 -92.94048828125
vt -279.05052734375 -83.049931640625
vt -270.1047265625 -91.60568359375
vt -277.3284765625 -81.7950390625
vt -268.2798828125 -90.233720703125
vt -275.623125 -80.527392578125
vt -266.5084765625 -88.8797265625
vt -273.8713671875 -79.2035302734375
vt -264.72939453125 -87.4966015625
vt -272.13474609375 -77.8892041015625
vt -262.998359375 -86.147744140625
vt -270.3438671875 -76.53076171875
vt -261.26025390625 -84.79880859375
vt -268.54490234375 -75.1906689453125
vt -259.48880859375 -83.42654296875
vt -266.76689453125 -73.868623046875
vt -257.73248046875 -82.057880859375
vt -264.97224609375 -72.5395703125
vt -255.93330078125 -80.6436572265625
vt -263.2303125 -71.238271484375
vt -254.13625 -79.1856591796875
vt -261.52091796875 -69.92314453125
vt -252.48541015625 -77.8504931640625
vt -259.65728515625 -68.4953369140625
vt -250.76267578125 -76.4990087890625
vt -257.8282421875 -67.1300927734375
vt -249.1703515625 -75.3093310546875
vt -255.8025 -65.6935986328125
vt -247.48755859375 -74.1620263671875
vt -253.7704296875 -64.3621435546875
vt -245.8471484375 -73.14169921875
vt -251.59529296875 -63.065107421875
vt -244.15517578125 -72.2285791015625
vt -249.3612109375 -61.88126953125
vt -242.32056640625 -71.336279296875
vt -247.18615234375 -60.8440625
vt -240.48908203125 -70.54046875
vt -244.95208984375 -59.8564111328125
vt -238.53556640625 -69.757998046875
vt -242.79052734375 -58.9751220703125
vt -236.5930859375 -69.0501220703125
vt -240.5850390625 -58.1145458984375
vt -234.54525390625 -68.3422900390625
vt -238.45806640625 -57.3257470703125
vt -232.47794921875 -67.6572021484375
vt -236.34015625 -56.53087890625
vt -230.5458203125 -67.063193359375
vt -234.05783203125 -55.7304931640625
vt -228.57703125 -66.5520263671875
vt -231.76408203125 -54.9986376953125
vt -226.5224609375 -66.07029296875
vt -229.52685546875 -54.343681640625
vt -224.51212890625 -65.6702099609375
vt -227.2166796875 -53.7193359375
vt -222.222890625 -65.2148876953125
vt -225.17943359375 -53.1717578125
vt -220.02146484375 -64.76470703125
vt -223.05845703125 -52.569423828125
vt -217.5721875 -64.1894189453125
vt -221.21349609375 -51.986396484375
vt -215.141328125 -63.483828125
vt -219.41353515625 -51.299892578125
vt -213.0348046875 -62.832861328125
vt -217.319765625 -50.4668359375
vt -210.88498046875 -62.184658203125
vt -215.237578125 -49.6561376953125
vt -208.593359375 -61.4547265625
vt -213.315859375 -48.87322265625
vt -206.4176953125 -60.7327587890625
vt -211.29689453125 -48.0330322265625
vt -203.7870703125 -59.6969873046875
vt -209.81185546875 -47.3134228515625
vt -201.43513671875 -58.58375
vt -208.17517578125 -46.4028125
vt -198.5012109375 -56.724912109375
vt -207.37640625 -45.8034423828125
vt -196.04677734375 -54.4740966796875
vt -206.61396484375 -44.9868408203125
vt -193.94896484375 -51.8309326171875
vt -206.01208984375 -44.0968310546875
vt -193.8953436420049 -51.73082351456614
vt -196.3265634445141 -47.38313540800087
vt -196.5532821431706 -46.9777001657132
vt -205.62572265625 -43.198916015625
vt -197.76831897135176 -44.80488092433078
vt -198.31089377412255 -43.83460830048416
vt -205.11095703125 -41.6127783203125
vt -199.18190866944366 -42.27699467084841
vt -199.75530559983815 -41.25160362556147
vt -204.7797265625 -40.16855712890625
vt -200.27077912399218 -40.32979552417108
vt -201.08074170650332 -38.88136018191523
vt -204.487890625 -38.32501708984375
vt -201.42302660872713 -38.26926085756811
vt -202.27683474077665 -36.7424176420064
vt -204.29291015625 -36.5346630859375
vt -202.47117794953402 -36.39487865913282
vt -203.3767239617473 -34.775513917539385
vt -204.2040625 -34.73961669921875
vt -203.45250952300128 -34.63998853930196
vt -204.206193186618 -33.292195346338914
vt -225.2101197640295 -53.18000574858235
vt -225.1488581500455 -53.163074723230565
vt -223.12204371692508 -52.587481746544775
vt -222.9954281758067 -52.54950603722668
vt -221.33858662728886 -52.02592642780906
vt -221.09092087054904 -51.93964637564552
vt -219.44360494363812 -51.31136117506617
vt -219.383632476017 -51.28799507652859
vt -215.20511064101086 -49.64291032710598
vt -215.2700175180645 -49.6687679429624
vt -215.27013263714176 -49.668812771773474
vt -213.33144068110857 -48.87957053565777
vt -213.3003259712055 -48.86675844403303
vt -211.41508290049038 -48.08221621163462
vt -211.18169336109312 -47.977208885514294
vt -209.9262789646956 -47.368869352925316
vt -209.70074536917681 -47.25160378726589
vt -207.93002269750343 -46.218857771150844
vt -208.180851994346 -46.394067535976156
vt -208.44300747679455 -46.551827799879426
vt -207.10553546304254 -45.513330242978725
vt -207.29120201807476 -45.70084825730731
vt -207.48754086069636 -45.87716086103511
vt -207.69387682695174 -46.041661755819085
vt -206.4163053927533 -44.69455614051153
vt -206.62476646487931 -44.978232752118785
vt -206.85476467417547 -45.24474590805204
vt -205.84416345407666 -43.70657112677067
vt -205.9638471225817 -43.96230401492837
vt -206.09933331356973 -44.21002761623406
vt -206.2500886229878 -44.44876665215943
vt -205.70807048378555 -43.390291875611325
vt -205.5614098171319 -43.00075006696106
vt -205.17237208579172 -41.80201537954382
vt -205.066482010082 -41.41885966210016
vt -204.81416908213293 -40.31873237373521
vt -204.75563628096359 -40.01637779504802
vt -204.50496344286302 -38.432866806981735
vt -204.47606877576317 -38.21646624241566
vt -204.3072922172669 -36.66672236700891
vt -204.2863431379093 -36.4019853874874
vt -204.20972840891437 -34.854088703923196
vt -204.20423121540935 -34.625004684489234
vt -204.80591891880974 -32.22265033318075
vt -204.6677951464734 -32.48137560770579
vt -204.21445782414082 -34.170429778437416
vt -204.20446889166746 -34.463546078548
vt -204.24351918189302 -33.87858670134277
vt -204.54681813565588 -32.74854878565622
vt -204.2915295195322 -33.589256523790816
vt -204.44350176649462 -33.02303498207748
vt -204.3582849011308 -33.30366824813843
vt -218.89155251445771 -7.789729632057362
vt -219.003216190534 -7.606297322830305
vt -197.80476619694696 -56.086243957197965
vt -197.58269971521105 -55.89551837206525
vt -190.94178934911534 -57.0267269805442
vt -190.795390242251 -57.28021676859116
vt -197.3487028124343 -55.71963426071437
vt -191.10435966898322 -56.783291851130144
vt -197.10376566842152 -55.55933589323168
vt -191.2824132703236 -56.55094149889347
vt -196.84892475763246 -55.415301587168905
vt -191.4751967026501 -56.3306591361061
vt -196.58525846324352 -55.288140837179
vt -191.68189418481737 -56.12337690821257
vt -196.31388251386818 -55.178391735882386
vt -191.90163105707518 -55.92997194936937
vt -196.03594526224683 -55.08651869687772
vt -192.13347748227318 -55.751262670769556
vt -195.7526228258847 -55.01291048953219
vt -192.37645238055404 -55.5880052974592
vt -195.4651141102006 -54.95787859386757
vt -192.62952758088431 -55.44089066830027
vt -195.17463573524608 -54.921655882503366
vt -192.89163217185683 -55.310541312621346
vt -194.88241688746416 -54.90439563523446
vt -193.16165703335238 -55.197508815926376
vt -194.58969411827147 -54.90617089041336
vt -193.4384595298854 -55.1022714858091
vt -194.29770611147538 -54.92697413588156
vt -193.72086834577306 -55.02523232794955
vt -194.00768844166723 -54.966717340757896
vt -213.0200061444231 -62.82839935314851
vt -213.04957222980414 -62.83742485661004
vn 0 0 1
f 1/1/1 3/3/1 2/2/1
f 2/2/1 3/3/1 4/4/1
f 2/2/1 4/4/1 5/5/1
f 5/5/1 4/4/1 6/6/1
f 5/5/1 6/6/1 7/7/1
f 7/7/1 6/6/1 8/8/1
f 7/7/1 8/8/1 9/9/1
f 9/9/1 8/8/1 10/10/1
f 9/9/1 10/10/1 11/11/1
f 11/11/1 10/10/1 12/12/1
f 11/11/1 12/12/1 13/13/1
f 13/13/1 12/12/1 14/14/1
f 13/13/1 14/14/1 15/15/1
f 15/15/1 14/14/1 16/16/1
f 15/15/1 16/16/1 17/17/1
f 17/17/1 16/16/1 18/18/1
f 17/17/1 18/18/1 19/19/1
f 19/19/1 18/18/1 20/20/1
f 19/19/1 20/20/1 21/21/1
f 21/21/1 20/20/1 22/22/1
f 21/21/1 22/22/1 23/23/1
f 23/23/1 22/22/1 24/24/1
f 23/23/1 24/24/1 25/25/1
f 25/25/1 24/24/1 26/26/1
f 25/25/1 26/26/1 27/27/1
f 27/27/1 26/26/1 28/28/1
f 27/27/1 28/28/1 29/29/1
f 29/29/1 28/28/1 30/30/1
f 29/29/1 30/30/1 31/31/1
f 31/31/1 30/30/1 32/32/1
f 31/31/1 32/32/1 33/33/1
f 33/33/1 32/32/1 34/34/1
f 33/33/1 34/34/1 35/35/1
f 35/35/1 34/34/1 36/36/1
f 35/35/1 36/36/1 37/37/1
f 37/37/1 36/36/1 38/38/1
f 37/37/1 38/38/1 39/39/1
f 39/39/1 38/38/1 40/40/1
f 39/39/1 40/40/1 41/41/1
f 41/41/1 40/40/1 42/42/1
f 41/41/1 42/42/1 43/43/1
f 43/43/1 42/42/1 44/44/1
f 43/43/1 44/44/1 45/45/1
f 45/45/1 44/44/1 46/46/1
f 45/45/1 46/46/1 47/47/1
f 47/47/1 46/46/1 48/48/1
f 47/47/1 48/48/1 49/49/1
f 49/49/1 48/48/1 50/50/1
f 49/49/1 50/50/1 51/51/1
f 51/51/1 50/50/1 52/52/1
f 51/51/1 52/52/1 53/53/1
f 53/53/1 52/52/1 54/54/1
f 53/53/1 54/54/1 55/55/1
f 55/55/1 54/54/1 56/56/1
f 55/55/1 56/56/1 57/57/1
f 57/57/1 56/56/1 58/58/1
f 57/57/1 58/58/1 59/59/1
f 59/59/1 58/58/1 60/60/1
f 59/59/1 60/60/1 61/61/1
f 61/61/1 60/60/1 62/62/1
f 61/61/1 62/62/1 63/63/1
f 63/63/1 62/62/1 64/64/1
f 63/63/1 64/64/1 65/65/1
f 65/65/1 64/64/1 66/66/1
f 65/65/1 66/66/1 67/67/1
f 67/67/1 66/66/1 68/68/1
f 67/67/1 68/68/1 69/69/1
f 69/69/1 68/68/1 70/70/1
f 69/69/1 70/70/1 71/71/1
f 71/71/1 70/70/1 72/72/1
f 71/71/1 72/72/1 73/73/1
f 73/73/1 72/72/1 74/74/1
f 73/73/1 74/74/1 75/75/1
f 75/75/1 74/74/1 76/76/1
f 75/75/1 76/76/1 77/77/1
f 77/77/1 76/76/1 78/78/1
f 77/77/1 78/78/1 79/79/1
f 79/79/1 78/78/1 80/80/1
f 79/79/1 80/80/1 81/81/1
f 81/81/1 80/80/1 82/82/1
f 81/81/1 82/82/1 83/83/1
f 83/83/1 82/82/1 84/84/1
f 83/83/1 84/84/1 85/85/1
f 85/85/1 84/84/1 86/86/1
f 85/85/1 86/86/1 87/87/1
f 87/87/1 86/86/1 88/88/1
f 87/87/1 88/88/1 89/89/1
f 89/89/1 88/88/1 90/90/1
f 89/89/1 90/90/1 91/91/1
f 91/91/1 90/90/1 92/92/1
f 91/91/1 92/92/1 93/93/1
f 93/93/1 92/92/1 94/94/1
f 93/93/1 94/94/1 95/95/1
f 95/95/1 94/94/1 96/96/1
f 95/95/1 96/96/1 97/97/1
f 97/97/1 96/96/1 98/98/1
f 97/97/1 98/98/1 99/99/1
f 99/99/1 98/98/1 100/100/1
f 99/99/1 100/100/1 101/101/1
f 101/101/1 100/100/1 102/102/1
f 101/101/1 102/102/1 103/103/1
f 103/103/1 102/102/1 104/104/1
f 103/103/1 104/104/1 105/105/1
f 105/105/1 104/104/1 106/106/1
f 105/105/1 106/106/1 107/107/1
f 107/107/1 106/106/1 108/108/1
f 107/107/1 108/108/1 109/109/1
f 109/109/1 108/108/1 110/110/1
f 109/109/1 110/110/1 111/111/1
f 111/111/1 110/110/1 112/112/1
f 111/111/1 112/112/1 113/113/1
f 113/113/1 112/112/1 114/114/1
f 113/113/1 114/114/1 115/115/1
f 115/115/1 114/114/1 116/116/1
f 115/115/1 116/116/1 117/117/1
f 117/117/1 116/116/1 118/118/1
f 117/117/1 118/118/1 119/119/1
f 119/119/1 118/118/1 120/120/1
f 119/119/1 120/120/1 121/121/1
f 121/121/1 120/120/1 122/122/1
f 121/121/1 122/122/1 123/123/1
f 123/123/1 122/122/1 124/124/1
f 123/123/1 124/124/1 125/125/1
f 125/125/1 124/124/1 126/126/1
f 125/125/1 126/126/1 127/127/1
f 127/127/1 126/126/1 128/128/1
f 127/127/1 128/128/1 129/129/1
f 129/129/1 128/128/1 130/130/1
f 129/129/1 130/130/1 131/131/1
f 131/131/1 130/130/1 132/132/1
f 131/131/1 132/132/1 133/133/1
f 133/133/1 132/132/1 134/134/1
f 133/133/1 134/134/1 135/135/1
f 135/135/1 134/134/1 136/136/1
f 135/135/1 136/136/1 137/137/1
f 137/137/1 136/136/1 138/138/1
f 137/137/1 138/138/1 139/139/1
f 139/139/1 138/138/1 140/140/1
f 139/139/1 140/140/1 141/141/1
f 141/141/1 140/140/1 142/142/1
f 141/141/1 142/142/1 143/143/1
f 143/143/1 142/142/1 144/144/1
f 143/143/1 144/144/1 145/145/1
f 145/145/1 144/144/1 146/146/1
f 145/145/1 146/146/1 147/147/1
f 147/147/1 146/146/1 148/148/1
f 147/147/1 148/148/1 149/149/1
f 149/149/1 148/148/1 150/150/1
f 149/149/1 150/150/1 151/151/1
f 151/151/1 150/150/1 152/152/1
f 151/151/1 152/152/1 153/153/1
f 153/153/1 152/152/1 154/154/1
f 153/153/1 154/154/1 155/155/1
f 155/155/1 154/154/1 156/156/1
f 155/155/1 156/156/1 157/157/1
f 157/157/1 156/156/1 158/158/1
f 157/157/1 158/158/1 159/159/1
f 159/159/1 158/158/1 160/160/1
f 159/159/1 160/160/1 161/161/1
f 161/161/1 160/160/1 162/162/1
f 161/161/1 162/162/1 163/163/1
f 163/163/1 162/162/1 164/164/1
f 163/163/1 164/164/1 165/165/1
f 165/165/1 164/164/1 166/166/1
f 165/165/1 166/166/1 167/167/1
f 167/167/1 166/166/1 168/168/1
f 167/167/1 168/168/1 169/169/1
f 169/169/1 168/168/1 170/170/1
f 169/169/1 170/170/1 171/171/1
f 171/171/1 170/170/1 172/172/1
f 171/171/1 172/172/1 173/173/1
f 173/173/1 172/172/1 174/174/1
f 173/173/1 174/174/1 175/175/1
f 175/175/1 174/174/1 176/176/1
f 175/175/1 176/176/1 177/177/1
f 177/177/1 176/176/1 178/178/1
f 177/177/1 178/178/1 179/179/1
f 179/179/1 178/178/1 180/180/1
f 179/179/1 180/180/1 181/181/1
f 181/181/1 180/180/1 182/182/1
f 181/181/1 182/182/1 183/183/1
f 183/183/1 182/182/1 184/184/1
f 183/183/1 184/184/1 185/185/1
f 185/185/1 184/184/1 186/186/1
f 185/185/1 186/186/1 187/187/1
f 187/187/1 186/186/1 188/188/1
f 187/187/1 188/188/1 189/189/1
f 189/189/1 188/188/1 190/190/1
f 189/189/1 190/190/1 191/191/1
f 191/191/1 190/190/1 192/192/1
f 191/191/1 192/192/1 193/193/1
f 193/193/1 192/192/1 194/194/1
f 193/193/1 194/194/1 195/195/1
f 195/195/1 194/194/1 196/196/1
f 195/195/1 196/196/1 197/197/1
f 197/197/1 196/196/1 198/198/1
f 197/197/1 198/198/1 199/199/1
f 199/199/1 198/198/1 200/200/1
f 199/199/1 200/200/1 201/201/1
f 201/201/1 200/200/1 202/202/1
f 201/201/1 202/202/1 203/203/1
f 203/203/1 202/202/1 204/204/1
f 203/203/1 204/204/1 205/205/1
f 205/205/1 204/204/1 206/206/1
f 205/205/1 206/206/1 207/207/1
f 207/207/1 206/206/1 208/208/1
f 207/207/1 208/208/1 209/209/1
f 209/209/1 208/208/1 210/210/1
f 209/209/1 210/210/1 211/211/1
f 211/211/1 210/210/1 212/212/1
f 211/211/1 212/212/1 213/213/1
f 213/213/1 212/212/1 214/214/1
f 213/213/1 214/214/1 215/215/1
f 215/215/1 214/214/1 216/216/1
f 215/215/1 216/216/1 217/217/1
f 217/217/1 216/216/1 218/218/1
f 217/217/1 218/218/1 219/219/1
f 219/219/1 218/218/1 220/220/1
f 219/219/1 220/220/1 221/221/1
f 221/221/1 220/220/1 222/222/1
f 221/221/1 222/222/1 223/223/1
f 223/223/1 222/222/1 224/224/1
f 223/223/1 224/224/1 225/225/1
f 225/225/1 224/224/1 226/226/1
f 225/225/1 226/226/1 227/227/1
f 227/227/1 226/226/1 228/228/1
f 227/227/1 228/228/1 229/229/1
f 229/229/1 228/228/1 230/230/1
f 229/229/1 230/230/1 231/231/1
f 231/231/1 230/230/1 232/232/1
f 231/231/1 232/232/1 233/233/1
f 233/233/1 232/232/1 234/234/1
f 233/233/1 234/234/1 235/235/1
f 235/235/1 234/234/1 236/236/1
f 235/235/1 236/236/1 237/237/1
f 237/237/1 236/236/1 238/238/1
f 237/237/1 238/238/1 239/239/1
f 239/239/1 238/238/1 240/240/1
f 239/239/1 240/240/1 241/241/1
f 241/241/1 240/240/1 242/242/1
f 241/241/1 242/242/1 243/243/1
f 243/243/1 242/242/1 244/244/1
f 243/243/1 244/244/1 245/245/1
f 245/245/1 244/244/1 246/246/1
f 245/245/1 246/246/1 247/247/1
f 247/247/1 246/246/1 248/248/1
f 247/247/1 248/248/1 249/249/1
f 249/249/1 248/248/1 250/250/1
f 249/249/1 250/250/1 251/251/1
f 251/251/1 250/250/1 252/252/1
f 251/251/1 252/252/1 253/253/1
f 253/253/1 252/252/1 254/254/1
f 253/253/1 254/254/1 255/255/1
f 255/255/1 254/254/1 256/256/1
f 255/255/1 256/256/1 257/257/1
f 257/257/1 256/256/1 258/258/1
f 257/257/1 258/258/1 259/259/1
f 259/259/1 258/258/1 260/260/1
f 259/259/1 260/260/1 261/261/1
f 261/261/1 260/260/1 262/262/1
f 261/261/1 262/262/1 263/263/1
f 263/263/1 262/262/1 264/264/1
f 263/263/1 264/264/1 265/265/1
f 265/265/1 264/264/1 266/266/1
f 265/265/1 266/266/1 267/267/1
f 267/267/1 266/266/1 268/268/1
f 267/267/1 268/268/1 269/269/1
f 269/269/1 268/268/1 270/270/1
f 269/269/1 270/270/1 271/271/1
f 271/271/1 270/270/1 272/272/1
f 271/271/1 272/272/1 273/273/1
f 273/273/1 272/272/1 274/274/1
f 273/273/1 274/274/1 275/275/1
f 275/275/1 274/274/1 276/276/1
f 275/275/1 276/276/1 277/277/1
f 277/277/1 276/276/1 278/278/1
f 277/277/1 278/278/1 279/279/1
f 279/279/1 278/278/1 280/280/1
f 279/279/1 280/280/1 281/281/1
f 281/281/1 280/280/1 282/282/1
f 281/281/1 282/282/1 283/283/1
f 283/283/1 282/282/1 284/284/1
f 283/283/1 284/284/1 285/285/1
f 285/285/1 284/284/1 286/286/1
f 285/285/1 286/286/1 287/287/1
f 287/287/1 286/286/1 288/288/1
f 287/287/1 288/288/1 289/289/1
f 289/289/1 288/288/1 290/290/1
f 289/289/1 290/290/1 291/291/1
f 291/291/1 290/290/1 292/292/1
f 291/291/1 292/292/1 293/293/1
f 293/293/1 292/292/1 294/294/1
f 293/293/1 294/294/1 295/295/1
f 295/295/1 294/294/1 296/296/1
f 295/295/1 296/296/1 297/297/1
f 297/297/1 296/296/1 298/298/1
f 297/297/1 298/298/1 299/299/1
f 299/299/1 298/298/1 300/300/1
f 299/299/1 300/300/1 301/301/1
f 301/301/1 300/300/1 302/302/1
f 301/301/1 302/302/1 303/303/1
f 303/303/1 302/302/1 304/304/1
f 305/305/1 307/307/1 306/306/1
f 305/305/1 308/308/1 307/307/1
f 308/308/1 309/309/1 307/307/1
f 308/308/1 310/310/1 309/309/1
f 310/310/1 311/311/1 309/309/1
f 310/310/1 312/312/1 311/311/1
f 312/312/1 313/313/1 311/311/1
f 312/312/1 314/314/1 313/313/1
f 314/314/1 315/315/1 313/313/1
f 314/314/1 316/316/1 315/315/1
f 316/316/1 317/317/1 315/315/1
f 316/316/1 318/318/1 317/317/1
f 318/318/1 319/319/1 317/317/1
f 318/318/1 320/320/1 319/319/1
f 320/320/1 321/321/1 319/319/1
f 320/320/1 322/322/1 321/321/1
f 322/322/1 323/323/1 321/321/1
f 322/322/1 324/324/1 323/323/1
f 324/324/1 325/325/1 323/323/1
f 324/324/1 326/326/1 325/325/1
f 326/326/1 327/327/1 325/325/1
f 326/326/1 328/328/1 327/327/1
f 328/328/1 329/329/1 327/327/1
f 328/328/1 330/330/1 329/329/1
f 330/330/1 331/331/1 329/329/1
f 330/330/1 332/332/1 331/331/1
f 332/332/1 333/333/1 331/331/1
f 332/332/1 334/334/1 333/333/1
f 334/334/1 335/335/1 333/333/1
f 334/334/1 336/336/1 335/335/1
f 336/336/1 337/337/1 335/335/1
f 336/336/1 338/338/1 337/337/1
f 338/338/1 339/339/1 337/337/1
f 338/338/1 340/340/1 339/339/1
f 340/340/1 341/341/1 339/339/1
f 340/340/1 342/342/1 341/341/1
f 342/342/1 343/343/1 341/341/1
f 342/342/1 344/344/1 343/343/1
f 344/344/1 345/345/1 343/343/1
f 344/344/1 346/346/1 345/345/1
f 346/346/1 347/347/1 345/345/1
f 346/346/1 348/348/1 347/347/1
f 348/348/1 349/349/1 347/347/1
f 348/348/1 350/350/1 349/349/1
f 350/350/1 351/351/1 349/349/1
f 350/350/1 352/352/1 351/351/1
f 352/352/1 353/353/1 351/351/1
f 352/352/1 354/354/1 353/353/1
f 354/354/1 355/355/1 353/353/1
f 354/354/1 356/356/1 355/355/1
f 356/356/1 357/357/1 355/355/1
f 356/356/1 358/358/1 357/357/1
f 358/358/1 359/359/1 357/357/1
f 358/358/1 360/360/1 359/359/1
f 360/360/1 361/361/1 359/359/1
f 360/360/1 362/362/1 361/361/1
f 362/362/1 363/363/1 361/361/1
f 362/362/1 364/364/1 363/363/1
f 364/364/1 365/365/1 363/363/1
f 364/364/1 366/366/1 365/365/1
f 366/366/1 367/367/1 365/365/1
f 366/366/1 368/368/1 367/367/1
f 368/368/1 369/369/1 367/367/1
f 368/368/1 370/370/1 369/369/1
f 370/370/1 371/371/1 369/369/1
f 370/370/1 372/372/1 371/371/1
f 372/372/1 373/373/1 371/371/1
f 372/372/1 374/374/1 373/373/1
f 374/374/1 375/375/1 373/373/1
f 374/374/1 376/376/1 375/375/1
f 376/376/1 377/377/1 375/375/1
f 376/376/1 378/378/1 377/377/1
f 378/378/1 379/379/1 377/377/1
f 378/378/1 380/380/1 379/379/1
f 380/380/1 381/381/1 379/379/1
f 380/380/1 382/382/1 381/381/1
f 382/382/1 383/383/1 381/381/1
f 382/382/1 384/384/1 383/383/1
f 384/384/1 385/385/1 383/383/1
f 384/384/1 386/386/1 385/385/1
f 386/386/1 387/387/1 385/385/1
f 386/386/1 388/388/1 387/387/1
f 388/388/1 389/389/1 387/387/1
f 388/388/1 390/390/1 389/389/1
f 390/390/1 391/391/1 389/389/1
f 390/390/1 392/392/1 391/391/1
f 392/392/1 393/393/1 391/391/1
f 392/392/1 394/394/1 393/393/1
f 394/394/1 395/395/1 393/393/1
f 394/394/1 396/396/1 395/395/1
f 396/396/1 397/397/1 395/395/1
f 396/396/1 398/398/1 397/397/1
f 398/398/1 399/399/1 397/397/1
f 398/398/1 400/400/1 399/399/1
f 400/400/1 401/401/1 399/399/1
f 400/400/1 402/402/1 401/401/1
f 402/402/1 403/403/1 401/401/1
f 402/402/1 404/404/1 403/403/1
f 404/404/1 405/405/1 403/403/1
f 404/404/1 406/406/1 405/405/1
f 406/406/1 407/407/1 405/405/1
f 406/406/1 408/408/1 407/407/1
f 408/408/1 409/409/1 407/407/1
f 408/408/1 410/410/1 409/409/1
f 410/410/1 411/411/1 409/409/1
f 410/410/1 412/412/1 411/411/1
f 412/412/1 413/413/1 411/411/1
f 412/412/1 414/414/1 413/413/1
f 414/414/1 415/415/1 413/413/1
f 414/414/1 416/416/1 415/415/1
f 416/416/1 417/417/1 415/415/1
f 416/416/1 418/418/1 417/417/1
f 418/418/1 419/419/1 417/417/1
f 418/418/1 420/420/1 419/419/1
f 420/420/1 421/421/1 419/419/1
f 420/420/1 422/422/1 421/421/1
f 422/422/1 423/423/1 421/421/1
f 422/422/1 424/424/1 423/423/1
f 424/424/1 425/425/1 423/423/1
f 424/424/1 426/426/1 425/425/1
f 426/426/1 427/427/1 425/425/1
f 426/426/1 428/428/1 427/427/1
f 428/428/1 429/429/1 427/427/1
f 428/428/1 430/430/1 429/429/1
f 430/430/1 431/431/1 429/429/1
f 430/430/1 432/432/1 431/431/1
f 432/432/1 433/433/1 431/431/1
f 432/432/1 434/434/1 433/433/1
f 434/434/1 435/435/1 433/433/1
f 434/434/1 436/436/1 435/435/1
f 436/436/1 437/437/1 435/435/1
f 436/436/1 438/438/1 437/437/1
f 438/438/1 439/439/1 437/437/1
f 438/438/1 440/440/1 439/439/1
f 440/440/1 441/441/1 439/439/1
f 440/440/1 442/442/1 441/441/1
f 442/442/1 443/443/1 441/441/1
f 442/442/1 444/444/1 443/443/1
f 444/444/1 445/445/1 443/443/1
f 444/444/1 446/446/1 445/445/1
f 446/446/1 447/447/1 445/445/1
f 446/446/1 448/448/1 447/447/1
f 448/448/1 449/449/1 447/447/1
f 448/448/1 450/450/1 449/449/1
f 450/450/1 451/451/1 449/449/1
f 450/450/1 452/452/1 451/451/1
f 452/452/1 453/453/1 451/451/1
f 452/452/1 454/454/1 453/453/1
f 454/454/1 455/455/1 453/453/1
f 454/454/1 456/456/1 455/455/1
f 456/456/1 457/457/1 455/455/1
f 456/456/1 458/458/1 457/457/1
f 458/458/1 459/459/1 457/457/1
f 458/458/1 460/460/1 459/459/1
f 460/460/1 461/461/1 459/459/1
f 460/460/1 462/462/1 461/461/1
f 462/462/1 463/463/1 461/461/1
f 462/462/1 464/464/1 463/463/1
f 464/464/1 465/465/1 463/463/1
f 464/464/1 466/466/1 465/465/1
f 466/466/1 467/467/1 465/465/1
f 466/466/1 468/468/1 467/467/1
f 468/468/1 469/469/1 467/467/1
f 468/468/1 470/470/1 469/469/1
f 470/470/1 471/471/1 469/469/1
f 470/470/1 472/472/1 471/471/1
f 472/472/1 473/473/1 471/471/1
f 472/472/1 474/474/1 473/473/1
f 474/474/1 475/475/1 473/473/1
f 474/474/1 476/476/1 475/475/1
f 476/476/1 477/477/1 475/475/1
f 476/476/1 478/478/1 477/477/1
f 478/478/1 479/479/1 477/477/1
f 478/478/1 480/480/1 479/479/1
f 480/480/1 481/481/1 479/479/1
f 480/480/1 482/482/1 481/481/1
f 482/482/1 483/483/1 481/481/1
f 482/482/1 484/484/1 483/483/1
f 484/484/1 485/485/1 483/483/1
f 484/484/1 486/486/1 485/485/1
f 486/486/1 487/487/1 485/485/1
f 486/486/1 488/488/1 487/487/1
f 488/488/1 489/489/1 487/487/1
f 488/488/1 490/490/1 489/489/1
f 490/490/1 491/491/1 489/489/1
f 490/490/1 492/492/1 491/491/1
f 492/492/1 493/493/1 491/491/1
f 492/492/1 494/494/1 493/493/1
f 494/494/1 495/495/1 493/493/1
f 494/494/1 496/496/1 495/495/1
f 496/496/1 497/497/1 495/495/1
f 496/496/1 498/498/1 497/497/1
f 498/498/1 499/499/1 497/497/1
f 498/498/1 500/500/1 499/499/1
f 500/500/1 501/501/1 499/499/1
f 500/500/1 502/502/1 501/501/1
f 502/502/1 503/503/1 501/501/1
f 502/502/1 504/504/1 503/503/1
f 504/504/1 505/505/1 503/503/1
f 504/504/1 506/506/1 505/505/1
f 506/506/1 507/507/1 505/505/1
f 506/506/1 508/508/1 507/507/1
f 508/508/1 509/509/1 507/507/1
f 508/508/1 510/510/1 509/509/1
f 510/510/1 511/511/1 509/509/1
f 510/510/1 512/512/1 511/511/1
f 512/512/1 513/513/1 511/511/1
f 512/512/1 514/514/1 513/513/1
f 514/514/1 515/515/1 513/513/1
f 514/514/1 516/516/1 515/515/1
f 516/516/1 517/517/1 515/515/1
f 516/516/1 518/518/1 517/517/1
f 518/518/1 519/519/1 517/517/1
f 518/518/1 520/520/1 519/519/1
f 520/520/1 521/521/1 519/519/1
f 520/520/1 522/522/1 521/521/1
f 522/522/1 523/523/1 521/521/1
f 522/522/1 524/524/1 523/523/1
f 524/524/1 525/525/1 523/523/1
f 524/524/1 526/526/1 525/525/1
f 526/526/1 527/527/1 525/525/1
f 526/526/1 528/528/1 527/527/1
f 528/528/1 529/529/1 527/527/1
f 528/528/1 530/530/1 529/529/1
f 530/530/1 531/531/1 529/529/1
f 530/530/1 532/532/1 531/531/1
f 532/532/1 533/533/1 531/531/1
f 532/532/1 534/534/1 533/533/1
f 534/534/1 535/535/1 533/533/1
f 534/534/1 536/536/1 535/535/1
f 536/536/1 537/537/1 535/535/1
f 536/536/1 538/538/1 537/537/1
f 537/537/1 540/540/1 539/539/1
f 540/540/1 537/537/1 538/538/1
f 540/540/1 538/538/1 541/541/1
f 542/542/1 541/541/1 538/538/1
f 542/542/1 543/543/1 541/541/1
f 543/543/1 542/542/1 544/544/1
f 545/545/1 544/544/1 542/542/1
f 545/545/1 546/546/1 544/544/1
f 546/546/1 545/545/1 547/547/1
f 548/548/1 547/547/1 545/545/1
f 548/548/1 549/549/1 547/547/1
f 549/549/1 548/548/1 550/550/1
f 551/551/1 550/550/1 548/548/1
f 551/551/1 552/552/1 550/550/1
f 552/552/1 551/551/1 553/553/1
f 554/554/1 553/553/1 551/551/1
f 554/554/1 555/555/1 553/553/1
f 555/555/1 554/554/1 556/556/1
f 557/557/1 556/556/1 554/554/1
f 557/557/1 558/558/1 556/556/1
f 557/557/1 559/559/1 558/558/1
f 560/560/1 561/561/1 514/514/1
f 562/562/1 563/563/1 516/516/1
f 564/564/1 565/565/1 518/518/1
f 566/566/1 567/567/1 520/520/1
f 524/524/1 569/569/1 568/568/1
f 569/569/1 524/524/1 570/570/1
f 571/571/1 572/572/1 526/526/1
f 573/573/1 574/574/1 528/528/1
f 575/575/1 576/576/1 530/530/1
f 532/532/1 578/578/1 577/577/1
f 578/578/1 532/532/1 579/579/1
f 534/534/1 581/581/1 580/580/1
f 582/582/1 534/534/1 583/583/1
f 534/534/1 582/582/1 581/581/1
f 536/536/1 585/585/1 584/584/1
f 585/585/1 536/536/1 586/586/1
f 538/538/1 588/588/1 587/587/1
f 589/589/1 538/538/1 590/590/1
f 538/538/1 589/589/1 588/588/1
f 591/591/1 592/592/1 542/542/1
f 593/593/1 594/594/1 545/545/1
f 595/595/1 596/596/1 548/548/1
f 597/597/1 598/598/1 551/551/1
f 599/599/1 600/600/1 554/554/1
f 601/601/1 602/602/1 557/557/1
f 112/112/1 604/604/1 603/603/1
f 605/605/1 559/559/1 606/606/1
f 559/559/1 604/604/1 112/112/1
f 607/607/1 559/559/1 605/605/1
f 559/559/1 608/608/1 604/604/1
f 609/609/1 559/559/1 607/607/1
f 559/559/1 610/610/1 608/608/1
f 611/611/1 559/559/1 609/609/1
f 559/559/1 611/611/1 610/610/1
f 612/612/1 613/613/1 114/114/1
f 535/535/1 615/615/1 614/614/1
f 110/110/1 616/616/1 539/539/1
f 616/616/1 110/110/1 617/617/1
f 535/535/1 618/618/1 615/615/1
f 616/616/1 619/619/1 539/539/1
f 535/535/1 620/620/1 618/618/1
f 619/619/1 621/621/1 539/539/1
f 535/535/1 622/622/1 620/620/1
f 621/621/1 623/623/1 539/539/1
f 535/535/1 624/624/1 622/622/1
f 623/623/1 625/625/1 539/539/1
f 535/535/1 626/626/1 624/624/1
f 625/625/1 627/627/1 539/539/1
f 535/535/1 628/628/1 626/626/1
f 627/627/1 629/629/1 539/539/1
f 535/535/1 630/630/1 628/628/1
f 629/629/1 631/631/1 539/539/1
f 535/535/1 632/632/1 630/630/1
f 631/631/1 633/633/1 539/539/1
f 535/535/1 634/634/1 632/632/1
f 633/633/1 635/635/1 539/539/1
f 535/535/1 636/636/1 634/634/1
f 537/537/1 539/539/1 635/635/1
f 535/535/1 537/537/1 636/636/1
f 637/637/1 537/537/1 635/635/1
f 638/638/1 636/636/1 537/537/1
f 639/639/1 537/537/1 637/637/1
f 640/640/1 638/638/1 537/537/1
f 641/641/1 537/537/1 639/639/1
f 642/642/1 640/640/1 537/537/1
f 641/641/1 642/642/1 537/537/1
f 643/643/1 644/644/1 521/521/1
